<svg width="22" height="22" viewBox="0 0 22 22" fill="none" xmlns="http://www.w3.org/2000/svg">
<path d="M7.5625 18.5625C7.9422 18.5625 8.25 18.2547 8.25 17.875C8.25 17.4953 7.9422 17.1875 7.5625 17.1875C7.1828 17.1875 6.875 17.4953 6.875 17.875C6.875 18.2547 7.1828 18.5625 7.5625 18.5625Z" stroke="black" stroke-linecap="round" stroke-linejoin="round"/>
<path d="M17.1875 18.5625C17.5672 18.5625 17.875 18.2547 17.875 17.875C17.875 17.4953 17.5672 17.1875 17.1875 17.1875C16.8078 17.1875 16.5 17.4953 16.5 17.875C16.5 18.2547 16.8078 18.5625 17.1875 18.5625Z" stroke="black" stroke-linecap="round" stroke-linejoin="round"/>
<path d="M2.0625 3.4375H4.8125L6.875 15.125H17.875" stroke="black" stroke-linecap="round" stroke-linejoin="round"/>
<path d="M6.875 12.375H17.5931C17.6726 12.3751 17.7497 12.3476 17.8112 12.2972C17.8727 12.2468 17.9148 12.1767 17.9304 12.0987L19.1679 5.91121C19.1779 5.86132 19.1767 5.80983 19.1644 5.76046C19.152 5.7111 19.1289 5.66508 19.0966 5.62574C19.0644 5.5864 19.0238 5.55471 18.9778 5.53297C18.9318 5.51123 18.8815 5.49996 18.8306 5.5H5.5" stroke="black" stroke-linecap="round" stroke-linejoin="round"/>
</svg>
